<svg width="256" height="256" viewBox="0 0 256 256" fill="none" xmlns="http://www.w3.org/2000/svg">
<g clip-path="url(#clip0_23_1795)">
<rect width="256" height="256" rx="12" fill="white"/>
<rect width="1544" height="500" transform="translate(-88 -184)" fill="white"/>
<rect x="-88" y="-184" width="1544" height="500" fill="url(#paint0_linear_23_1795)"/>
<circle cx="60" cy="276" r="188" fill="white" fill-opacity="0.05"/>
<circle cx="364" cy="152" r="492" fill="white" fill-opacity="0.05"/>
<g opacity="0.12" clip-path="url(#clip1_23_1795)">
<circle cx="38" cy="26" r="2" fill="white"/>
<circle cx="66" cy="26" r="2" fill="white"/>
<circle cx="94" cy="26" r="2" fill="white"/>
<circle cx="122" cy="26" r="2" fill="white"/>
<circle cx="150" cy="26" r="2" fill="white"/>
<circle cx="178" cy="26" r="2" fill="white"/>
<circle cx="206" cy="26" r="2" fill="white"/>
<circle cx="234" cy="26" r="2" fill="white"/>
<circle cx="38" cy="54" r="2" fill="white"/>
<circle cx="66" cy="54" r="2" fill="white"/>
<circle cx="94" cy="54" r="2" fill="white"/>
<circle cx="122" cy="54" r="2" fill="white"/>
<circle cx="150" cy="54" r="2" fill="white"/>
<circle cx="178" cy="54" r="2" fill="white"/>
<circle cx="206" cy="54" r="2" fill="white"/>
<circle cx="234" cy="54" r="2" fill="white"/>
<circle cx="10" cy="82" r="2" fill="white"/>
<circle cx="38" cy="82" r="2" fill="white"/>
<circle cx="66" cy="82" r="2" fill="white"/>
<circle cx="94" cy="82" r="2" fill="white"/>
<circle cx="122" cy="82" r="2" fill="white"/>
<circle cx="150" cy="82" r="2" fill="white"/>
<circle cx="178" cy="82" r="2" fill="white"/>
<circle cx="206" cy="82" r="2" fill="white"/>
<circle cx="234" cy="82" r="2" fill="white"/>
<circle cx="10" cy="110" r="2" fill="white"/>
<circle cx="38" cy="110" r="2" fill="white"/>
<circle cx="66" cy="110" r="2" fill="white"/>
<circle cx="94" cy="110" r="2" fill="white"/>
<circle cx="122" cy="110" r="2" fill="white"/>
<circle cx="150" cy="110" r="2" fill="white"/>
<circle cx="178" cy="110" r="2" fill="white"/>
<circle cx="206" cy="110" r="2" fill="white"/>
<circle cx="234" cy="110" r="2" fill="white"/>
<circle cx="10" cy="138" r="2" fill="white"/>
<circle cx="38" cy="138" r="2" fill="white"/>
<circle cx="66" cy="138" r="2" fill="white"/>
<circle cx="94" cy="138" r="2" fill="white"/>
<circle cx="122" cy="138" r="2" fill="white"/>
<circle cx="150" cy="138" r="2" fill="white"/>
<circle cx="178" cy="138" r="2" fill="white"/>
<circle cx="206" cy="138" r="2" fill="white"/>
<circle cx="234" cy="138" r="2" fill="white"/>
<circle cx="10" cy="166" r="2" fill="white"/>
<circle cx="38" cy="166" r="2" fill="white"/>
<circle cx="66" cy="166" r="2" fill="white"/>
<circle cx="94" cy="166" r="2" fill="white"/>
<circle cx="122" cy="166" r="2" fill="white"/>
<circle cx="150" cy="166" r="2" fill="white"/>
<circle cx="178" cy="166" r="2" fill="white"/>
<circle cx="206" cy="166" r="2" fill="white"/>
<circle cx="234" cy="166" r="2" fill="white"/>
<circle cx="10" cy="194" r="2" fill="white"/>
<circle cx="38" cy="194" r="2" fill="white"/>
<circle cx="66" cy="194" r="2" fill="white"/>
<circle cx="94" cy="194" r="2" fill="white"/>
<circle cx="122" cy="194" r="2" fill="white"/>
<circle cx="150" cy="194" r="2" fill="white"/>
<circle cx="178" cy="194" r="2" fill="white"/>
<circle cx="206" cy="194" r="2" fill="white"/>
<circle cx="234" cy="194" r="2" fill="white"/>
<circle cx="38" cy="222" r="2" fill="white"/>
<circle cx="66" cy="222" r="2" fill="white"/>
<circle cx="94" cy="222" r="2" fill="white"/>
<circle cx="122" cy="222" r="2" fill="white"/>
<circle cx="150" cy="222" r="2" fill="white"/>
<circle cx="178" cy="222" r="2" fill="white"/>
<circle cx="206" cy="222" r="2" fill="white"/>
<circle cx="234" cy="222" r="2" fill="white"/>
<circle cx="38" cy="250" r="2" fill="white"/>
<circle cx="66" cy="250" r="2" fill="white"/>
<circle cx="94" cy="250" r="2" fill="white"/>
<circle cx="122" cy="250" r="2" fill="white"/>
<circle cx="150" cy="250" r="2" fill="white"/>
<circle cx="178" cy="250" r="2" fill="white"/>
<circle cx="206" cy="250" r="2" fill="white"/>
<circle cx="234" cy="250" r="2" fill="white"/>
</g>
<path fill-rule="evenodd" clip-rule="evenodd" d="M61.25 87.5C59.179 87.5 57.5 89.179 57.5 91.25V164.75C57.5 166.821 59.179 168.5 61.25 168.5H194.75C196.821 168.5 198.5 166.821 198.5 164.75V91.25C198.5 89.179 196.821 87.5 194.75 87.5H61.25ZM50 91.25C50 85.0368 55.0368 80 61.25 80H194.75C200.963 80 206 85.0368 206 91.25V164.75C206 170.963 200.963 176 194.75 176H61.25C55.0368 176 50 170.963 50 164.75V91.25Z" fill="white"/>
<path d="M72.5 153.5V102.5H87.5L102.5 121.25L117.5 102.5H132.5V153.5H117.5V124.25L102.5 143L87.5 124.25V153.5H72.5ZM166.25 153.5L143.75 128.75H158.75V102.5H173.75V128.75H188.75L166.25 153.5Z" fill="white"/>
<path d="M71.032 217V198.98L63.688 217H62.26L54.916 198.98V217H51.516V194.322H56.378L62.974 210.608L69.57 194.322H74.432V217H71.032ZM89.537 217V215.198C88.245 216.626 86.375 217.408 84.165 217.408C81.445 217.408 78.453 215.572 78.453 211.968C78.453 208.228 81.411 206.596 84.165 206.596C86.375 206.596 88.279 207.31 89.537 208.772V206.052C89.537 204.012 87.871 202.788 85.525 202.788C83.655 202.788 82.057 203.502 80.595 204.964L79.269 202.856C81.105 201.054 83.349 200.17 86.001 200.17C89.571 200.17 92.597 201.734 92.597 205.916V217H89.537ZM89.537 213.396V210.608C88.619 209.384 87.021 208.738 85.321 208.738C83.111 208.738 81.547 210.064 81.547 212.002C81.547 213.94 83.111 215.266 85.321 215.266C87.021 215.266 88.619 214.62 89.537 213.396ZM97.5007 217V200.578H100.561V203.094C101.819 201.462 103.757 200.204 105.933 200.204V203.298C105.627 203.23 105.287 203.196 104.879 203.196C103.349 203.196 101.275 204.352 100.561 205.576V217H97.5007ZM120.005 217L114.531 209.928L112.049 212.444V217H108.989V194.322H112.049V208.908L119.971 200.578H123.813L116.741 208.024L123.881 217H120.005ZM137.519 217V214.654C136.295 216.286 134.323 217.408 132.147 217.408C127.863 217.408 124.803 214.178 124.803 208.806C124.803 203.536 127.863 200.17 132.147 200.17C134.255 200.17 136.193 201.19 137.519 202.958V194.322H140.579V217H137.519ZM137.519 212.308V205.304C136.669 203.978 134.833 202.89 132.963 202.89C129.903 202.89 127.999 205.372 127.999 208.806C127.999 212.206 129.903 214.688 132.963 214.688C134.833 214.688 136.669 213.634 137.519 212.308ZM152.755 217.408C147.655 217.408 144.459 213.532 144.459 208.772C144.459 204.046 147.655 200.17 152.755 200.17C157.889 200.17 161.051 204.046 161.051 208.772C161.051 213.532 157.889 217.408 152.755 217.408ZM152.755 214.688C156.053 214.688 157.855 211.9 157.855 208.772C157.855 205.678 156.053 202.89 152.755 202.89C149.491 202.89 147.655 205.678 147.655 208.772C147.655 211.9 149.491 214.688 152.755 214.688ZM179.182 217L175.136 204.386L171.09 217H167.928L162.76 200.578H165.956L169.696 213.09L173.81 200.578H176.462L180.576 213.09L184.316 200.578H187.512L182.344 217H179.182ZM201.321 217V206.494C201.321 203.774 199.927 202.89 197.819 202.89C195.915 202.89 194.181 204.046 193.297 205.27V217H190.237V200.578H193.297V202.89C194.385 201.564 196.561 200.17 199.111 200.17C202.579 200.17 204.381 202.006 204.381 205.474V217H201.321Z" fill="white"/>
<g filter="url(#filter0_d_23_1795)">
<path d="M40 0H216V40C216 44.4183 212.418 48 208 48H48C43.5817 48 40 44.4183 40 40V0Z" fill="#F5E49E" shape-rendering="crispEdges"/>
<path d="M78.7373 31L71.1053 20.248V31H67.6973V14.992H71.2013L78.6173 25.36V14.992H82.0253V31H78.7373ZM85.1817 31V14.992H96.5097V17.92H88.5897V21.4H96.3417V24.328H88.5897V28.048H96.5097V31H85.1817ZM111.414 31L108.606 20.008L105.822 31H102.198L97.6138 14.992H101.43L104.238 26.56L107.286 14.992H109.95L112.974 26.56L115.758 14.992H119.598L115.038 31H111.414ZM126.89 31V28.312C133.442 23.488 135.362 21.832 135.362 19.864C135.362 18.472 134.09 17.776 132.746 17.776C130.946 17.776 129.554 18.496 128.474 19.624L126.53 17.368C128.09 15.568 130.466 14.752 132.698 14.752C136.106 14.752 138.818 16.672 138.818 19.864C138.818 22.6 136.562 24.976 132.266 28H138.938V31H126.89ZM140.968 23.008C140.968 18.88 143.008 14.752 147.592 14.752C152.152 14.752 154.216 18.88 154.216 23.008C154.216 27.136 152.152 31.288 147.592 31.288C143.008 31.288 140.968 27.136 140.968 23.008ZM150.736 23.008C150.736 20.056 149.872 17.776 147.592 17.776C145.288 17.776 144.424 20.056 144.424 23.008C144.424 25.96 145.288 28.264 147.592 28.264C149.872 28.264 150.736 25.96 150.736 23.008ZM156.163 31V28.312C162.715 23.488 164.635 21.832 164.635 19.864C164.635 18.472 163.363 17.776 162.019 17.776C160.219 17.776 158.827 18.496 157.747 19.624L155.803 17.368C157.363 15.568 159.739 14.752 161.971 14.752C165.379 14.752 168.091 16.672 168.091 19.864C168.091 22.6 165.835 24.976 161.539 28H168.211V31H156.163ZM177.682 31V27.688H170.026V25L176.386 14.992H181.09V24.688H183.154V27.688H181.09V31H177.682ZM177.682 18.016L173.362 24.688H177.682V18.016ZM185.474 25.792L184.97 14.992H188.642L188.162 25.792H185.474ZM184.898 29.32C184.898 28.264 185.762 27.376 186.818 27.376C187.874 27.376 188.762 28.264 188.762 29.32C188.762 30.352 187.874 31.24 186.818 31.24C185.762 31.24 184.898 30.352 184.898 29.32Z" fill="#322401"/>
</g>
</g>
<defs>
<filter id="filter0_d_23_1795" x="-6" y="-38" width="268" height="140" filterUnits="userSpaceOnUse" color-interpolation-filters="sRGB">
<feFlood flood-opacity="0" result="BackgroundImageFix"/>
<feColorMatrix in="SourceAlpha" type="matrix" values="0 0 0 0 0 0 0 0 0 0 0 0 0 0 0 0 0 0 127 0" result="hardAlpha"/>
<feMorphology radius="30" operator="dilate" in="SourceAlpha" result="effect1_dropShadow_23_1795"/>
<feOffset dy="8"/>
<feGaussianBlur stdDeviation="8"/>
<feComposite in2="hardAlpha" operator="out"/>
<feColorMatrix type="matrix" values="0 0 0 0 0 0 0 0 0 0 0 0 0 0 0 0 0 0 0.25 0"/>
<feBlend mode="normal" in2="BackgroundImageFix" result="effect1_dropShadow_23_1795"/>
<feBlend mode="normal" in="SourceGraphic" in2="effect1_dropShadow_23_1795" result="shape"/>
</filter>
<linearGradient id="paint0_linear_23_1795" x1="-88" y1="66" x2="1456" y2="66" gradientUnits="userSpaceOnUse">
<stop stop-color="#342774"/>
<stop offset="1" stop-color="#725AC1"/>
</linearGradient>
<clipPath id="clip0_23_1795">
<rect width="256" height="256" rx="12" fill="white"/>
</clipPath>
<clipPath id="clip1_23_1795">
<rect width="456" height="456" fill="white" transform="translate(8 -88)"/>
</clipPath>
</defs>
</svg>
